# Blender v2.92.0 OBJ File: 'Mapa_Nivel_1.blend'
# www.blender.org
mtllib Arbol.mtl
o Copa_Icosphere
v 43.939781 3.582951 58.133720
v 41.925213 3.582951 58.788307
v 40.680126 3.582959 57.074608
v 41.925213 3.582951 55.360909
v 43.939781 3.582951 56.015495
v 43.038822 5.384868 58.788307
v 41.024254 5.384867 58.133720
v 41.024254 5.384867 56.015495
v 43.038822 5.384868 55.360909
v 44.283909 5.384859 57.074608
v 42.482018 6.498486 57.074608
v 42.348454 2.625226 57.485706
v 42.831722 2.625227 57.328682
v 43.011585 3.424771 58.704422
v 44.195713 3.424774 57.074608
v 42.831722 2.625227 56.820545
v 42.049770 2.625229 57.074612
v 41.095608 3.424773 58.081890
v 42.348454 2.625226 56.663517
v 41.095608 3.424773 56.067326
v 43.011585 3.424771 55.444794
v 44.397995 4.483909 57.697136
v 44.397995 4.483909 56.452080
v 42.482018 4.483909 59.089184
v 43.666157 4.483909 58.704433
v 40.566040 4.483909 57.697136
v 41.297878 4.483909 58.704433
v 41.297878 4.483909 55.444782
v 40.566040 4.483909 56.452080
v 43.666157 4.483909 55.444782
v 42.482018 4.483909 55.060032
v 43.868427 5.543045 58.081890
v 41.952450 5.543048 58.704422
v 40.768322 5.543044 57.074608
v 41.952450 5.543048 55.444794
v 43.868427 5.543045 56.067326
v 42.809296 6.197617 58.081886
v 43.541142 6.197612 57.074608
v 41.625172 6.197617 57.697136
v 41.625172 6.197617 56.452080
v 42.809296 6.197617 56.067329
v 42.348454 -0.094855 57.485706
v 42.482025 -0.217647 57.074612
v 42.049770 -0.094853 57.074612
v 42.348454 -0.094855 56.663517
v 42.831722 -0.094855 57.328682
v 42.831722 -0.094855 56.820545
v 42.482025 2.625227 57.074612
vt 0.727272 0.157461
vt 0.681818 0.078731
vt 0.636363 0.157461
vt 0.681818 0.236191
vt 0.909090 0.157461
vt 0.818181 0.157461
vt 0.863635 0.236191
vt 0.181818 0.157461
vt 0.090909 0.157461
vt 0.136363 0.236191
vt 0.363636 0.157461
vt 0.272727 0.157461
vt 0.318182 0.236191
vt 0.545454 0.157461
vt 0.454545 0.157461
vt 0.500000 0.236191
vt 0.772726 0.236191
vt 0.954545 0.236191
vt 0.227273 0.236191
vt 0.409090 0.236191
vt 0.590909 0.236191
vt 0.818181 0.314921
vt 0.727272 0.314921
vt 0.772726 0.393651
vt 1.000000 0.314921
vt 0.909091 0.314921
vt 0.954545 0.393651
vt 0.272727 0.314921
vt 0.181818 0.314921
vt 0.227273 0.393651
vt 0.454545 0.314921
vt 0.363636 0.314921
vt 0.409090 0.393651
vt 0.636363 0.314921
vt 0.545454 0.314921
vt 0.590909 0.393651
vt 0.500000 0.393651
vt 0.545454 0.472382
vt 0.318182 0.393651
vt 0.363636 0.472382
vt 0.136363 0.393651
vt 0.181818 0.472382
vt 0.090909 0.314921
vt 0.863635 0.393651
vt 0.909090 0.472382
vt 0.681818 0.393651
vt 0.727272 0.472382
vt 0.045454 0.236191
vt 0.000000 0.157461
vt 0.500000 0.078731
vt 0.409090 0.078731
vt 0.318182 0.078731
vt 0.227273 0.078731
vt 0.136363 0.078731
vt 0.045454 0.078731
vt 0.590909 0.078731
vt 0.863635 0.078731
vt 0.772726 0.078731
vt 0.590909 0.078731
vt 0.045454 0.078731
vt 0.409090 0.078731
vt 0.227273 0.078731
vt 0.772726 0.078731
vn 0.5239 -0.8148 0.2483
vn 0.9050 -0.3304 0.2680
vn 0.0247 -0.3304 0.9435
vn -0.8897 -0.3304 0.3151
vn -0.5746 -0.3304 -0.7488
vn 0.5346 -0.3304 -0.7779
vn 0.8026 -0.1256 0.5831
vn -0.3066 -0.1256 0.9435
vn -0.9921 -0.1256 0.0000
vn -0.3066 -0.1256 -0.9435
vn 0.8026 -0.1256 -0.5831
vn 0.4089 0.6617 0.6284
vn -0.4713 0.6617 0.5831
vn -0.7002 0.6617 -0.2680
vn 0.0385 0.6617 -0.7488
vn 0.7240 0.6617 -0.1947
vn 0.2680 0.9435 -0.1947
vn 0.4911 0.7947 -0.3568
vn 0.4089 0.6617 -0.6284
vn -0.1024 0.9435 -0.3151
vn -0.1876 0.7947 -0.5773
vn -0.4713 0.6617 -0.5831
vn -0.3313 0.9435 0.0000
vn -0.6071 0.7947 0.0000
vn -0.7002 0.6617 0.2680
vn -0.1024 0.9435 0.3151
vn -0.1876 0.7947 0.5773
vn 0.0385 0.6617 0.7488
vn 0.2680 0.9435 0.1947
vn 0.4911 0.7947 0.3568
vn 0.7240 0.6617 0.1947
vn 0.8897 0.3304 -0.3151
vn 0.7947 0.1876 -0.5773
vn 0.5746 0.3304 -0.7488
vn -0.0247 0.3304 -0.9435
vn -0.3035 0.1876 -0.9342
vn -0.5346 0.3304 -0.7779
vn -0.9050 0.3304 -0.2680
vn -0.9822 0.1876 0.0000
vn -0.9050 0.3304 0.2680
vn -0.5346 0.3304 0.7779
vn -0.3035 0.1876 0.9342
vn -0.0247 0.3304 0.9435
vn 0.5746 0.3304 0.7488
vn 0.7947 0.1876 0.5773
vn 0.8897 0.3304 0.3151
vn 0.3066 0.1256 -0.9435
vn 0.3035 -0.1876 -0.9342
vn 0.0247 -0.3304 -0.9435
vn -0.8026 0.1256 -0.5831
vn -0.7947 -0.1876 -0.5773
vn -0.8897 -0.3304 -0.3151
vn -0.8026 0.1256 0.5831
vn -0.7947 -0.1876 0.5773
vn -0.5746 -0.3304 0.7488
vn 0.3066 0.1256 0.9435
vn 0.3035 -0.1876 0.9342
vn 0.5346 -0.3304 0.7779
vn 0.9921 0.1256 0.0000
vn 0.9822 -0.1876 0.0000
vn 0.9050 -0.3304 -0.2680
vn 0.3980 -0.8148 -0.4215
vn 0.1563 -0.8627 -0.4809
vn -0.0742 -0.8148 -0.5750
vn -0.2779 -0.8148 -0.5088
vn -0.4091 -0.8627 -0.2972
vn -0.5698 -0.8148 -0.1071
vn -0.5698 -0.8148 0.1071
vn -0.4091 -0.8627 0.2972
vn -0.2779 -0.8148 0.5088
vn 0.5239 -0.8148 -0.2483
vn 0.5057 -0.8627 0.0000
vn -0.0742 -0.8148 0.5750
vn 0.1563 -0.8627 0.4810
vn 0.3980 -0.8148 0.4215
vn -0.0000 -1.0000 0.0000
g Copa_Icosphere_Copa
usemtl Copa
s off
f 1/1/1 13/2/1 15/3/1
f 1/1/2 15/3/2 22/4/2
f 2/5/3 14/6/3 24/7/3
f 3/8/4 18/9/4 26/10/4
f 4/11/5 20/12/5 28/13/5
f 5/14/6 21/15/6 30/16/6
f 1/1/7 22/4/7 25/17/7
f 2/5/8 24/7/8 27/18/8
f 3/8/9 26/10/9 29/19/9
f 4/11/10 28/13/10 31/20/10
f 5/14/11 30/16/11 23/21/11
f 6/22/12 32/23/12 37/24/12
f 7/25/13 33/26/13 39/27/13
f 8/28/14 34/29/14 40/30/14
f 9/31/15 35/32/15 41/33/15
f 10/34/16 36/35/16 38/36/16
f 38/36/17 41/37/17 11/38/17
f 38/36/18 36/35/18 41/37/18
f 36/35/19 9/31/19 41/37/19
f 41/33/20 40/39/20 11/40/20
f 41/33/21 35/32/21 40/39/21
f 35/32/22 8/28/22 40/39/22
f 40/30/23 39/41/23 11/42/23
f 40/30/24 34/29/24 39/41/24
f 34/29/25 7/43/25 39/41/25
f 39/27/26 37/44/26 11/45/26
f 39/27/27 33/26/27 37/44/27
f 33/26/28 6/22/28 37/44/28
f 37/24/29 38/46/29 11/47/29
f 37/24/30 32/23/30 38/46/30
f 32/23/31 10/34/31 38/46/31
f 23/21/32 36/35/32 10/34/32
f 23/21/33 30/16/33 36/35/33
f 30/16/34 9/31/34 36/35/34
f 31/20/35 35/32/35 9/31/35
f 31/20/36 28/13/36 35/32/36
f 28/13/37 8/28/37 35/32/37
f 29/19/38 34/29/38 8/28/38
f 29/19/39 26/10/39 34/29/39
f 26/10/40 7/43/40 34/29/40
f 27/18/41 33/26/41 7/25/41
f 27/18/42 24/7/42 33/26/42
f 24/7/43 6/22/43 33/26/43
f 25/17/44 32/23/44 6/22/44
f 25/17/45 22/4/45 32/23/45
f 22/4/46 10/34/46 32/23/46
f 30/16/47 31/20/47 9/31/47
f 30/16/48 21/15/48 31/20/48
f 21/15/49 4/11/49 31/20/49
f 28/13/50 29/19/50 8/28/50
f 28/13/51 20/12/51 29/19/51
f 20/12/52 3/8/52 29/19/52
f 26/10/53 27/48/53 7/43/53
f 26/10/54 18/9/54 27/48/54
f 18/9/55 2/49/55 27/48/55
f 24/7/56 25/17/56 6/22/56
f 24/7/57 14/6/57 25/17/57
f 14/6/58 1/1/58 25/17/58
f 22/4/59 23/21/59 10/34/59
f 22/4/60 15/3/60 23/21/60
f 15/3/61 5/14/61 23/21/61
f 16/50/62 21/15/62 5/14/62
f 16/50/63 19/51/63 21/15/63
f 19/51/64 4/11/64 21/15/64
f 19/52/65 20/12/65 4/11/65
f 19/52/66 17/53/66 20/12/66
f 17/53/67 3/8/67 20/12/67
f 17/54/68 18/9/68 3/8/68
f 17/54/69 12/55/69 18/9/69
f 12/55/70 2/49/70 18/9/70
f 15/3/71 16/56/71 5/14/71
f 15/3/72 13/2/72 16/56/72
f 12/57/73 14/6/73 2/5/73
f 12/57/74 13/58/74 14/6/74
f 13/58/75 1/1/75 14/6/75
f 16/56/76 13/2/76 48/59/76
f 12/55/76 17/54/76 48/60/76
f 19/51/76 16/50/76 48/61/76
f 17/53/76 19/52/76 48/62/76
f 13/58/76 12/57/76 48/63/76
o Tronco_Cylinder.007
v 42.482235 -0.072225 56.750000
v 42.482235 2.707367 56.750000
v 42.606457 -0.072225 56.774708
v 42.606457 2.707367 56.774708
v 42.711765 -0.072225 56.845074
v 42.711765 2.707367 56.845074
v 42.782131 -0.072225 56.950382
v 42.782131 2.707367 56.950382
v 42.806839 -0.072225 57.074604
v 42.806839 2.707367 57.074604
v 42.782131 -0.072225 57.198826
v 42.782131 2.707367 57.198826
v 42.711765 -0.072225 57.304134
v 42.711765 2.707367 57.304134
v 42.606457 -0.072225 57.374500
v 42.606457 2.707367 57.374500
v 42.482235 -0.072225 57.399208
v 42.482235 2.707367 57.399208
v 42.358013 -0.072225 57.374500
v 42.358013 2.707367 57.374500
v 42.252705 -0.072225 57.304134
v 42.252705 2.707367 57.304134
v 42.182339 -0.072225 57.198826
v 42.182339 2.707367 57.198826
v 42.157631 -0.072225 57.074604
v 42.157631 2.707367 57.074604
v 42.182339 -0.072225 56.950382
v 42.182339 2.707367 56.950382
v 42.252705 -0.072225 56.845074
v 42.252705 2.707367 56.845074
v 42.358013 -0.072225 56.774708
v 42.358013 2.707367 56.774708
vt 0.937500 1.000000
vt 0.875000 1.000000
vt 0.875000 0.500000
vt 0.937500 0.500000
vt 0.812500 1.000000
vt 0.812500 0.500000
vt 0.750000 1.000000
vt 0.750000 0.500000
vt 0.687500 1.000000
vt 0.687500 0.500000
vt 0.625000 1.000000
vt 0.625000 0.500000
vt 0.562500 1.000000
vt 0.562500 0.500000
vt 0.500000 1.000000
vt 0.500000 0.500000
vt 0.437500 1.000000
vt 0.437500 0.500000
vt 0.375000 1.000000
vt 0.375000 0.500000
vt 0.312500 1.000000
vt 0.312500 0.500000
vt 0.250000 1.000000
vt 0.250000 0.500000
vt 0.187500 1.000000
vt 0.187500 0.500000
vt 0.125000 1.000000
vt 0.125000 0.500000
vt 0.062500 1.000000
vt 0.062500 0.500000
vt 0.000000 1.000000
vt 0.000000 0.500000
vt 1.000000 1.000000
vt 1.000000 0.500000
vn 0.5556 0.0000 -0.8315
vn 0.8315 0.0000 -0.5556
vn 0.9808 0.0000 -0.1951
vn 0.9808 0.0000 0.1951
vn 0.8315 0.0000 0.5556
vn 0.5556 0.0000 0.8315
vn 0.1950 0.0000 0.9808
vn -0.1950 0.0000 0.9808
vn -0.5556 0.0000 0.8315
vn -0.8315 0.0000 0.5556
vn -0.9808 0.0000 0.1951
vn -0.9808 0.0000 -0.1951
vn -0.8315 0.0000 -0.5556
vn -0.5556 0.0000 -0.8315
vn -0.1950 0.0000 -0.9808
vn 0.1950 0.0000 -0.9808
g Tronco_Cylinder.007_Tronco
usemtl Tronco
s off
f 52/64/77 54/65/77 53/66/77 51/67/77
f 54/65/78 56/68/78 55/69/78 53/66/78
f 56/68/79 58/70/79 57/71/79 55/69/79
f 58/70/80 60/72/80 59/73/80 57/71/80
f 60/72/81 62/74/81 61/75/81 59/73/81
f 62/74/82 64/76/82 63/77/82 61/75/82
f 64/76/83 66/78/83 65/79/83 63/77/83
f 66/78/84 68/80/84 67/81/84 65/79/84
f 68/80/85 70/82/85 69/83/85 67/81/85
f 70/82/86 72/84/86 71/85/86 69/83/86
f 72/84/87 74/86/87 73/87/87 71/85/87
f 74/86/88 76/88/88 75/89/88 73/87/88
f 76/88/89 78/90/89 77/91/89 75/89/89
f 78/90/90 80/92/90 79/93/90 77/91/90
f 80/92/91 50/94/91 49/95/91 79/93/91
f 50/96/92 52/64/92 51/67/92 49/97/92
