# Blender v2.92.0 OBJ File: 'Torreta.blend'
# www.blender.org
mtllib Base_Torreta.mtl
o Base_Torreta_Cube.001
v -0.654246 0.000000 1.000000
v -1.000000 0.000000 0.654246
v -1.000000 0.302312 0.654246
v -0.654246 0.302312 1.000000
v -1.000000 0.000000 -0.654246
v -0.654246 0.000000 -1.000000
v -0.654246 0.302312 -1.000000
v -1.000000 0.302312 -0.654246
v 1.000000 0.000000 0.654246
v 0.654246 0.000000 1.000000
v 0.654246 0.302312 1.000000
v 1.000000 0.302312 0.654246
v 0.654246 0.000000 -1.000000
v 1.000000 0.000000 -0.654246
v 1.000000 0.302312 -0.654246
v 0.654246 0.302312 -1.000000
vt 0.375000 0.810797
vt 0.625000 0.810797
vt 0.625000 0.974359
vt 0.375000 0.974359
vt 0.375000 0.560797
vt 0.625000 0.560797
vt 0.625000 0.724359
vt 0.375000 0.724359
vt 0.668219 0.517578
vt 0.831781 0.517578
vt 0.875000 0.560797
vt 0.875000 0.724359
vt 0.831781 0.767578
vt 0.668219 0.767578
vt 0.375000 0.060797
vt 0.625000 0.060797
vt 0.625000 0.224359
vt 0.375000 0.224359
vt 0.375000 0.310797
vt 0.625000 0.310797
vt 0.625000 0.474359
vt 0.375000 0.474359
vt 0.375000 0.017578
vt 0.625000 0.017578
vn 0.0000 0.0000 1.0000
vn 1.0000 0.0000 0.0000
vn 0.0000 1.0000 -0.0000
vn -1.0000 0.0000 0.0000
vn 0.0000 0.0000 -1.0000
vn -0.7071 0.0000 0.7071
vn -0.7071 0.0000 -0.7071
vn 0.7071 0.0000 -0.7071
vn 0.7071 0.0000 0.7071
g Base_Torreta_Cube.001_Material.001
usemtl Material.001
s off
f 10/1/1 11/2/1 4/3/1 1/4/1
f 14/5/2 15/6/2 12/7/2 9/8/2
f 15/6/3 16/9/3 7/10/3 8/11/3 3/12/3 4/13/3 11/14/3 12/7/3
f 2/15/4 3/16/4 8/17/4 5/18/4
f 6/19/5 7/20/5 16/21/5 13/22/5
f 1/23/6 4/24/6 3/16/6 2/15/6
f 7/20/7 6/19/7 5/18/7 8/17/7
f 15/6/8 14/5/8 13/22/8 16/21/8
f 11/2/9 10/1/9 9/8/9 12/7/9
