# Blender v2.92.0 OBJ File: 'Mapa_Nivel_1.blend'
# www.blender.org
mtllib Saco_de_barrera.mtl
o Saco_Cube
v 84.958130 0.031588 -6.485305
v 84.955559 0.199636 -6.487701
v 84.570419 0.023266 -6.652512
v 84.567841 0.191314 -6.654909
v 85.272240 0.026015 -7.213380
v 85.269669 0.194063 -7.215776
v 84.884529 0.017693 -7.380587
v 84.881950 0.185741 -7.382984
v 84.994743 0.149456 -6.341386
v 85.037895 0.118843 -6.346995
v 84.995705 0.087095 -6.340497
v 84.962074 0.118044 -6.321607
v 84.677193 -0.002545 -7.038065
v 84.673950 0.209379 -7.041087
v 85.166138 0.007950 -6.827201
v 85.162895 0.219874 -6.830224
v 85.239098 0.115513 -6.796548
v 84.600990 0.101816 -7.071741
v 84.764275 0.027427 -6.568908
v 84.761703 0.195475 -6.571305
v 85.078384 0.021854 -7.296984
v 85.075813 0.189902 -7.299380
v 85.110062 0.105293 -7.374593
v 84.730019 0.112036 -6.493696
v 84.918053 0.238549 -6.935997
v 84.922035 -0.021220 -6.932292
v 84.956978 0.116907 -6.395817
v 84.986534 0.089708 -6.412418
v 85.023621 0.117610 -6.418128
v 84.985695 0.144514 -6.413199
v 84.495850 0.079176 -6.624032
v 84.503059 0.107164 -6.591575
v 84.495010 0.133982 -6.624814
v 84.473564 0.105803 -6.655348
v 84.854393 0.072815 -7.455089
v 84.816467 0.099719 -7.450160
v 84.853546 0.127621 -7.455871
v 84.883102 0.100422 -7.472472
v 85.345078 0.083347 -7.243474
v 85.337021 0.110165 -7.276714
v 85.344238 0.138153 -7.244256
v 85.366524 0.111526 -7.212941
v 84.437370 0.075111 -6.581283
v 84.445580 0.106957 -6.544351
v 84.436417 0.137472 -6.582172
v 84.412010 0.105408 -6.616915
v 84.845337 0.067873 -7.526902
v 84.802185 0.098486 -7.521294
v 84.844383 0.130234 -7.527792
v 84.878014 0.099285 -7.546681
v 85.403664 0.079857 -7.286116
v 85.394508 0.110372 -7.323937
v 85.402710 0.142218 -7.287005
v 85.428070 0.111920 -7.251373
vt 0.375000 0.500000
vt 0.459233 0.500000
vt 0.500000 0.520027
vt 0.500000 0.625000
vt 0.375000 0.625000
vt 0.375000 0.750000
vt 0.459233 0.750000
vt 0.500000 0.762215
vt 0.500000 0.875000
vt 0.375000 0.875000
vt 0.500000 0.020027
vt 0.459233 0.000000
vt 0.500000 0.987785
vt 0.540767 1.000000
vt 0.375000 0.000000
vt 0.459233 0.000000
vt 0.500000 0.020027
vt 0.500000 0.125000
vt 0.375000 0.125000
vt 0.250000 0.625000
vt 0.250000 0.750000
vt 0.750000 0.625000
vt 0.875000 0.625000
vt 0.875000 0.750000
vt 0.750000 0.750000
vt 0.625000 0.875000
vt 0.625000 1.000000
vt 0.540767 1.000000
vt 0.500000 0.987785
vt 0.540767 0.750000
vt 0.625000 0.750000
vt 0.540767 0.500000
vt 0.625000 0.500000
vt 0.625000 0.625000
vt 0.500000 0.262215
vt 0.540767 0.250000
vt 0.625000 0.250000
vt 0.625000 0.375000
vt 0.500000 0.375000
vt 0.500000 0.229973
vt 0.459233 0.250000
vt 0.375000 0.250000
vt 0.500000 0.729973
vt 0.125000 0.625000
vt 0.125000 0.750000
vt 0.625000 0.125000
vt 0.125000 0.500000
vt 0.250000 0.500000
vt 0.750000 0.500000
vt 0.375000 0.375000
vt 0.500000 0.487785
vt 0.875000 0.500000
vt 0.459233 1.000000
vt 0.375000 1.000000
vt 0.500000 0.229973
vt 0.459233 0.250000
vt 0.459233 0.750000
vt 0.500000 0.762215
vt 0.500000 0.262215
vt 0.500000 0.520027
vt 0.540767 0.500000
vt 0.540767 0.000000
vt 0.625000 0.000000
vt 0.540767 0.250000
vt 0.459233 0.500000
vt 0.500000 0.487785
vt 0.500000 0.729973
vt 0.540767 0.750000
vt 0.540767 0.000000
vt 0.459233 1.000000
vn 0.2923 -0.7085 -0.6424
vn 0.7223 -0.6621 0.1996
vn 0.3173 0.0184 0.9482
vn -0.2707 -0.6985 0.6624
vn 0.0961 -0.9942 -0.0474
vn -0.0045 0.9962 0.0869
vn 0.6164 0.6909 0.3777
vn 0.7015 0.6894 0.1803
vn 0.2707 0.6985 -0.6625
vn -0.7223 0.6621 -0.1996
vn -0.2707 -0.6985 0.6625
vn 0.2922 -0.7085 -0.6424
vn 0.0656 0.9950 -0.0757
vn 0.0259 -0.9930 0.1152
vn -0.2923 0.7085 0.6424
vn -0.0656 -0.9950 0.0757
vn -0.0259 0.9930 -0.1152
vn -0.7016 -0.6894 -0.1803
vn -0.6164 -0.6909 -0.3777
vn -0.0961 0.9942 0.0474
vn 0.0045 -0.9962 -0.0868
vn -0.6371 0.6607 -0.3970
vn 0.6371 -0.6607 0.3970
vn 0.4376 -0.7267 0.5295
vn 0.3231 -0.7976 0.5093
vn -0.2982 -0.8214 -0.4861
vn 0.6588 0.7502 -0.0567
vn -0.2922 0.7085 0.6424
vn -0.9075 -0.0078 0.4200
vn -0.3173 -0.0184 -0.9482
vn 0.9075 0.0077 -0.4199
vn -0.4149 -0.7546 -0.5083
vn 0.4149 0.7546 0.5083
vn -0.4376 0.7267 -0.5295
vn -0.3231 0.7977 -0.5092
vn -0.6813 0.7311 0.0356
vn 0.2983 0.8214 0.4861
vn 0.6815 -0.7310 -0.0356
vn -0.6586 -0.7503 0.0567
vn -0.5628 -0.8167 0.1272
vn 0.5877 -0.8024 -0.1041
vn -0.5877 0.8024 0.1041
vn 0.5628 0.8167 -0.1271
g Saco_Cube_Saco
usemtl Saco
s off
f 7/1/1 35/2/1 38/3/1 23/4/1 21/5/1
f 5/6/2 39/7/2 42/8/2 17/9/2 15/10/2
f 12/11/3 11/12/3 10/13/3 9/14/3
f 1/15/4 28/16/4 27/17/4 24/18/4 19/19/4
f 26/20/5 21/5/5 5/6/5 15/21/5
f 25/22/6 20/23/6 2/24/6 16/25/6
f 17/9/7 16/26/7 2/27/7 30/28/7 29/29/7
f 42/8/8 41/30/8 6/31/8 16/26/8 17/9/8
f 38/3/9 37/32/9 8/33/9 22/34/9 23/4/9
f 34/35/10 33/36/10 4/37/10 14/38/10 18/39/10
f 19/19/11 24/18/11 32/40/11 31/41/11 3/42/11
f 21/5/12 23/4/12 40/43/12 39/7/12 5/6/12
f 22/34/13 25/22/13 16/25/13 6/31/13
f 19/44/14 26/20/14 15/21/14 1/45/14
f 23/4/9 22/34/9 6/31/9 41/30/9 40/43/9
f 24/18/15 20/46/15 4/37/15 33/36/15 32/40/15
f 3/47/16 13/48/16 26/20/16 19/44/16
f 8/33/17 14/49/17 25/22/17 22/34/17
f 3/42/18 31/41/18 34/35/18 18/39/18 13/50/18
f 13/50/19 18/39/19 36/51/19 35/2/19 7/1/19
f 14/49/20 4/52/20 20/23/20 25/22/20
f 13/48/21 7/1/21 21/5/21 26/20/21
f 18/39/22 14/38/22 8/33/22 37/32/22 36/51/22
f 15/10/23 17/9/23 29/29/23 28/53/23 1/54/23
f 31/41/24 32/40/24 44/55/24 43/56/24
f 42/8/25 39/7/25 51/57/25 54/58/25
f 34/35/26 31/41/26 43/56/26 46/59/26
f 37/32/27 38/3/27 50/60/27 49/61/27
f 27/17/28 30/62/28 2/63/28 20/46/28 24/18/28
f 43/56/29 44/55/29 45/64/29 46/59/29
f 47/65/30 48/66/30 49/61/30 50/60/30
f 51/57/31 52/67/31 53/68/31 54/58/31
f 39/7/32 40/43/32 52/67/32 51/57/32
f 32/40/33 33/36/33 45/64/33 44/55/33
f 40/43/34 41/30/34 53/68/34 52/67/34
f 33/36/35 34/35/35 46/59/35 45/64/35
f 30/62/36 27/17/36 12/11/36 9/69/36
f 41/30/37 42/8/37 54/58/37 53/68/37
f 38/3/38 35/2/38 47/65/38 50/60/38
f 27/17/39 28/16/39 11/12/39 12/11/39
f 35/2/40 36/51/40 48/66/40 47/65/40
f 28/53/41 29/29/41 10/13/41 11/70/41
f 36/51/42 37/32/42 49/61/42 48/66/42
f 29/29/43 30/28/43 9/14/43 10/13/43
