# Blender v2.92.0 OBJ File: 'Mapa_Nivel_1.blend'
# www.blender.org
mtllib Arbol.mtl
o Piedra_Cube.067
v 37.986301 -0.296987 0.332648
v 38.040993 0.156751 0.332648
v 37.953484 -0.212898 -0.667352
v 37.986301 0.296899 -0.667352
v 38.953484 -0.212898 0.332648
v 38.986301 0.296899 0.332648
v 38.942547 -0.184868 -0.667352
v 38.953484 0.380987 -0.667352
v 37.856880 -0.311189 -0.167352
v 37.914711 -0.097369 0.442216
v 37.914711 0.264644 -0.167352
v 37.856880 0.050824 -0.776920
v 38.444267 -0.254351 -0.776920
v 38.466450 0.412838 -0.776920
v 39.053837 0.107662 -0.776920
v 39.053837 -0.254351 -0.167352
v 39.076015 0.412838 -0.167352
v 39.076015 0.050824 0.442216
v 38.466450 -0.311189 0.442216
v 38.524281 0.264644 0.442216
v 37.663403 -0.042607 -0.167352
v 38.447815 0.098578 -1.006858
v 39.287319 0.098578 -0.167352
v 38.502911 -0.042607 0.672154
v 38.447815 -0.399992 -0.167352
v 38.502911 0.455963 -0.167352
vt 0.375000 0.000000
vt 0.500000 0.000000
vt 0.500000 0.125000
vt 0.375000 0.125000
vt 0.625000 0.000000
vt 0.625000 0.125000
vt 0.625000 0.250000
vt 0.500000 0.250000
vt 0.375000 0.250000
vt 0.500000 0.373264
vt 0.369792 0.369792
vt 0.630208 0.369792
vt 0.666667 0.458333
vt 0.500000 0.493056
vt 0.333333 0.458333
vt 0.500000 0.625000
vt 0.368056 0.625000
vt 0.631945 0.625000
vt 0.666667 0.791667
vt 0.500000 0.756944
vt 0.333333 0.791667
vt 0.500000 0.876736
vt 0.369792 0.880208
vt 0.630208 0.880208
vt 0.625000 1.000000
vt 0.500000 1.000000
vt 0.375000 1.000000
vt 0.125000 0.500000
vt 0.244792 0.494792
vt 0.248264 0.625000
vt 0.125000 0.625000
vt 0.244792 0.755208
vt 0.125000 0.750000
vt 0.755208 0.494792
vt 0.751736 0.625000
vt 0.875000 0.500000
vt 0.875000 0.625000
vt 0.875000 0.750000
vt 0.755208 0.755208
vn -0.8130 -0.5211 0.2599
vn -0.7489 0.5698 0.3384
vn -0.8053 0.5792 -0.1268
vn -0.8107 -0.5033 -0.2989
vn -0.2575 -0.4956 -0.8295
vn -0.3275 0.5514 -0.7673
vn 0.2649 0.5098 -0.8185
vn 0.2883 -0.4854 -0.8254
vn 0.8227 -0.4887 -0.2903
vn 0.8271 0.4900 -0.2754
vn 0.8166 0.4963 0.2948
vn 0.8249 -0.5169 0.2288
vn 0.3420 -0.5758 0.7426
vn 0.2054 0.5301 0.8226
vn -0.3270 0.5505 0.7681
vn -0.2259 -0.5829 0.7805
vn -0.1388 -0.9647 -0.2237
vn 0.2068 -0.9563 -0.2068
vn 0.2284 -0.9648 0.1301
vn -0.1059 -0.9887 0.1059
vn 0.0784 0.9938 -0.0784
vn -0.2781 0.9604 -0.0182
vn -0.2847 0.9153 0.2847
vn 0.0386 0.9624 0.2689
g Piedra_Cube.067_Piedra
usemtl Piedra
s off
f 1/1/1 10/2/1 21/3/1 9/4/1
f 10/2/2 2/5/2 11/6/2 21/3/2
f 21/3/3 11/6/3 4/7/3 12/8/3
f 9/4/4 21/3/4 12/8/4 3/9/4
f 3/9/5 12/8/5 22/10/5 13/11/5
f 12/8/6 4/7/6 14/12/6 22/10/6
f 22/10/7 14/12/7 8/13/7 15/14/7
f 13/11/8 22/10/8 15/14/8 7/15/8
f 7/15/9 15/14/9 23/16/9 16/17/9
f 15/14/10 8/13/10 17/18/10 23/16/10
f 23/16/11 17/18/11 6/19/11 18/20/11
f 16/17/12 23/16/12 18/20/12 5/21/12
f 5/21/13 18/20/13 24/22/13 19/23/13
f 18/20/14 6/19/14 20/24/14 24/22/14
f 24/22/15 20/24/15 2/25/15 10/26/15
f 19/23/16 24/22/16 10/26/16 1/27/16
f 3/28/17 13/29/17 25/30/17 9/31/17
f 13/29/18 7/15/18 16/17/18 25/30/18
f 25/30/19 16/17/19 5/21/19 19/32/19
f 9/31/20 25/30/20 19/32/20 1/33/20
f 8/13/21 14/34/21 26/35/21 17/18/21
f 14/34/22 4/36/22 11/37/22 26/35/22
f 26/35/23 11/37/23 2/38/23 20/39/23
f 17/18/24 26/35/24 20/39/24 6/19/24
